<?xml version="1.0" standalone="no"?>
<!DOCTYPE svg PUBLIC "-//W3C//DTD SVG 20010904//EN"
 "http://www.w3.org/TR/2001/REC-SVG-20010904/DTD/svg10.dtd">
<svg version="1.0" xmlns="http://www.w3.org/2000/svg"
 width="326.000000pt" height="326.000000pt" viewBox="0 0 326.000000 326.000000"
 preserveAspectRatio="xMidYMid meet">
<metadata>
Created by potrace 1.11, written by Peter Selinger 2001-2013
</metadata>
<g transform="translate(0.000000,326.000000) scale(0.100000,-0.100000)"
fill="#000000" stroke="none">
<path d="M1052 2898 c-66 -22 -151 -115 -181 -198 -66 -181 -49 -395 44 -565
49 -88 95 -137 161 -169 77 -38 136 -44 195 -18 90 39 147 108 190 228 31 86
31 300 1 396 -48 152 -125 261 -216 307 -54 27 -145 36 -194 19z"/>
<path d="M1955 2897 c-171 -67 -285 -277 -285 -527 0 -205 79 -358 217 -420
165 -74 359 91 423 360 45 192 6 393 -100 517 -60 69 -176 101 -255 70z"/>
<path d="M310 2346 c-20 -13 -48 -46 -63 -74 -23 -43 -27 -61 -27 -135 0 -131
46 -241 146 -344 75 -78 146 -113 226 -113 70 0 96 9 137 50 47 47 63 94 64
180 1 164 -103 345 -247 425 -56 31 -71 35 -132 34 -55 0 -76 -5 -104 -23z"/>
<path d="M2630 2348 c-25 -12 -74 -51 -110 -87 -126 -127 -184 -301 -146 -431
31 -104 90 -150 191 -150 124 0 250 99 327 257 42 87 43 90 43 193 0 109 -10
145 -55 190 -54 54 -165 67 -250 28z"/>
<path d="M1165 1764 c-11 -2 -45 -9 -75 -15 -104 -19 -196 -73 -272 -157 -110
-122 -142 -384 -68 -567 79 -197 245 -397 435 -523 85 -56 283 -155 346 -171
60 -16 125 2 274 75 274 136 494 354 588 584 47 114 51 134 51 265 0 139 -13
195 -69 291 -70 119 -227 204 -411 221 -94 9 -265 -30 -350 -79 -30 -18 -31
-18 -110 16 -43 18 -101 39 -129 46 -55 13 -179 22 -210 14z"/>
</g>
</svg>
